<svg xmlns="http://www.w3.org/2000/svg" version="1.1" xmlns:xlink="http://www.w3.org/1999/xlink" width="1000" height="1000"><metadata><rdf:RDF xmlns:rdf="http://www.w3.org/1999/02/22-rdf-syntax-ns#" xmlns:dc="http://purl.org/dc/elements/1.1/"><rdf:Description><dc:creator>RealFaviconGenerator</dc:creator><dc:source>https://realfavicongenerator.net</dc:source></rdf:Description></rdf:RDF></metadata><style>
    #light-icon {
      display: inline;
    }
    #dark-icon {
      display: none;
    }

    @media (prefers-color-scheme: dark) {
      #light-icon {
        display: none;
      }
      #dark-icon {
        display: inline;
      }
    }
  </style><g id="light-icon"><svg xmlns="http://www.w3.org/2000/svg" version="1.1" xmlns:xlink="http://www.w3.org/1999/xlink" width="1000" height="1000"><g clip-path="url(#SvgjsClipPath1011)"><rect width="1000" height="1000" fill="#ffffff"></rect><g transform="matrix(1.3779527559055118,0,0,1.3779527559055118,150,150)"><svg xmlns="http://www.w3.org/2000/svg" version="1.1" width="508" height="508" id="svg14" sodipodi:docname="Scribe Logo.svg" inkscape:version="1.3.2 (091e20e, 2023-11-25, custom)" xmlns:inkscape="http://www.inkscape.org/namespaces/inkscape" xmlns:sodipodi="http://sodipodi.sourceforge.net/DTD/sodipodi-0.dtd" xmlns:svg="http://www.w3.org/2000/svg"><defs id="defs14"><clipPath id="SvgjsClipPath1011"><rect width="1000" height="1000" x="0" y="0" rx="350" ry="350"></rect></clipPath></defs><sodipodi:namedview id="namedview14" pagecolor="#ffffff" bordercolor="#000000" borderopacity="0.25" inkscape:showpageshadow="2" inkscape:pageopacity="0.0" inkscape:pagecheckerboard="0" inkscape:deskcolor="#d1d1d1" inkscape:zoom="2" inkscape:cx="245.25" inkscape:cy="257" inkscape:window-width="2400" inkscape:window-height="1262" inkscape:window-x="12" inkscape:window-y="-8" inkscape:window-maximized="1" inkscape:current-layer="svg14"></sodipodi:namedview><path d="M0 0 C167.64 0 335.28 0 508 0 C508 167.64 508 335.28 508 508 C340.36 508 172.72 508 0 508 C0 340.36 0 172.72 0 0 Z " fill="#020202" transform="translate(0,0)" id="path1"></path><path d="m 0,0 h 508 v 264 c -14,-4 -14,-4 -18,-6 l -2.38649,-1.64645 -7.37453,-4.14782 c 0,0 -23.85629,-16.01776 -37.23898,-27.20573 -2.59914,-2.13119 -5.2049,-4.25417 -7.8125,-6.375 l -2.07422,-1.68726 c -4.89939,-3.97555 -9.84493,-7.88742 -14.81909,-11.76879 -4.52272,-3.53825 -8.97479,-7.15805 -13.41919,-10.79395 -5.47018,-4.46704 -11.0107,-8.8003 -16.6875,-13.00391 -3.90141,-2.90215 -7.76449,-5.85237 -11.625,-8.80859 l -2.20361,-1.68652 c -3.86203,-2.95775 -7.71884,-5.92215 -11.57129,-8.89234 C 356.23413,156.93105 349.63281,151.94772 343,147 c 0.41157,-4.96572 2.57415,-6.96967 6.125,-10.3125 3.91847,-3.71766 7.53359,-7.52605 11.06299,-11.61499 2.97264,-3.39999 6.08369,-6.66718 9.18701,-9.94751 5.62336,-5.97128 11.16896,-12.00002 16.625,-18.125 1.49913,-1.667451 2.99915,-3.334103 4.5,-5 2.19574,-2.437608 4.38977,-4.876486 6.57422,-7.324219 4.5191,-5.053714 9.10846,-10.036241 13.73828,-14.988281 l 1.80542,-1.932617 c 2.35974,-2.525129 4.71961,-5.050092 7.08667,-7.56836 C 430.07489,49.989407 430.07489,49.989407 437.1875,37.625 436.71778,28.543734 430.5025,20.940122 424,15 418.734,11.080896 412.70268,8.2513585 406,9 c -4.53095,1.84705 -7.55052,4.190728 -10.9375,7.6875 l -2.60938,2.6875 c -2.6754,2.862857 -5.26134,5.784955 -7.80859,8.761719 -2.18727,2.478212 -4.53733,4.766923 -6.89453,7.082031 -1.83242,1.865147 -3.54353,3.800527 -5.25,5.78125 -2.78239,3.229564 -5.71019,6.233227 -8.75,9.21875 -1.83242,1.865147 -3.54353,3.800527 -5.25,5.78125 -2.75359,3.196129 -5.6471,6.172618 -8.65698,9.125732 -1.7742,1.804277 -3.43235,3.662565 -5.0813,5.581299 -3.70888,4.265455 -7.55904,8.380676 -11.44922,12.480469 -4.83993,5.121019 -9.6671,10.251606 -14.4375,15.4375 -4.44265,4.8272 -8.90165,9.63873 -13.375,14.4375 l -1.78174,1.91455 c -1.09053,1.16881 -2.18485,2.33411 -3.28369,3.49512 -1.22498,1.30461 -2.4191,2.63809 -3.60645,3.97705 C 295,124 295,124 291.25,123.75 l -2.38672,-0.37891 c -3.49291,-0.45269 -6.90353,-0.52748 -10.42578,-0.55859 l -3.69141,-0.043 c -12.23773,0.36183 -24.15911,2.75386 -35.99609,5.73047 -1.42829,0.35324 -2.8566,0.70643 -4.28491,1.05957 C 217.88076,133.69096 201.42229,138.27026 185,143 l -2.55811,0.73425 c -5.31224,1.52595 -10.61924,3.06863 -15.92086,4.63111 -1.68318,0.49491 -3.36732,0.98653 -5.05255,1.47436 -9.15118,2.65597 -18.05325,5.63914 -26.85129,9.31262 l -2.40248,0.99967 c -15.69094,6.7437 -21.94722,20.89241 -28.09557,36.01449 -1.2514,3.15131 -2.49003,6.30747 -3.7229,9.46607 -2.731537,6.91054 -5.771875,13.65486 -8.869049,20.4082 -4.907084,10.71908 -9.424207,21.5076 -13.464691,32.58423 l -1.284424,3.51123 c -5.640861,15.72705 -10.41563,31.61136 -14.39331,47.83765 -0.642557,2.62039 -1.294214,5.2384 -1.947266,7.8562 -6.486103,20.82555 -6.486103,20.82555 -2.992188,41.31054 C 60.611119,362.92687 64.822505,365.44886 69,368 c -2.040467,3.63178 -4.286184,6.58268 -7.125,9.625 C 57.035412,382.92587 52.43505,388.35608 48,394 l -2.261719,2.82422 c -7.971351,10.5011 -13.839163,22.20332 -19.935562,33.84729 -3.056514,5.83301 -6.200251,11.61631 -9.365219,17.39099 l -1.405762,2.57031 -1.348144,2.46485 -1.305176,2.40283 c -0.996293,1.8066 -2.015925,3.60039 -3.0498047,5.38574 l -1.6684571,2.92236 -1.5388183,2.64624 C 4.9133105,469.19676 4.7736951,471.03876 5,474 c 2.1598161,0.8869 2.1598161,0.8869 5,1 5.523123,-2.844 10.583599,-6.34634 15.6875,-9.875 l 2.483154,-1.71045 c 1.731644,-1.19454 3.462174,-2.3907 5.191651,-3.58838 1.746548,-1.2092 3.494577,-2.41626 5.24414,-3.62109 C 62.500196,439.74714 84.623768,421.69133 105,401 c 2.83346,2.42314 3.82237,4.69685 5.01563,8.19922 l 1.09252,3.14307 1.14185,3.34521 c 6.52702,21.43414 6.52702,21.43414 20.375,38.1875 5.9634,2.82477 12.71741,3.20833 19.03906,1.33594 3.70877,-1.46782 7.19613,-3.13586 10.71094,-5.02344 3.00815,-1.36083 3.61681,-1.24827 6.625,-0.1875 1.78906,1.08472 1.78906,1.08472 3.625,2.44922 l 2.10962,1.54907 L 177,455.6875 c 1.62271,1.19145 3.24645,2.3815 4.87109,3.57031 l 2.5542,1.87207 c 4.17438,3.03202 8.40398,5.98358 12.63721,8.93262 9.70863,6.76662 9.70863,6.76662 14.48828,10.17187 C 231.72711,496.0406 231.72711,496.0406 256,500 c 5.83004,-1.88116 10.9214,-4.55325 14,-10 4.35968,-9.40533 5.39988,-17.0484 2.375,-27 -2.61704,-7.12668 -6.20904,-13.2068 -10.82031,-19.21875 C 253.68082,433.48653 247.74434,422.60546 242,411 l -1,-2 c 22.98552,2.20555 44.59106,14.01571 64.375,25.1875 42.92082,24.23515 94.3987,37.24283 143.07397,23.96289 9.744,-2.86328 19.06033,-6.72807 28.44019,-10.59546 C 486.91006,443.48779 497.09148,440 508,440 v 68 H 0 Z" fill="#fefefe" id="path2" sodipodi:nodetypes="ccccccccccccccscccccccccccccccccscscccccccccccccccccccccccccccccccccccccccccccccccccccccccccccccccccccccccccc"></path><path d="m 0,0 c 3.9648766,1.3662275 6.6420111,3.1488788 9.8125,5.875 4.560911,3.8252803 9.220851,7.451722 14,11 C 35.11624,25.289857 46.128619,34.033913 57,43 c 1.322655,1.083653 2.645592,2.166961 3.96875,3.25 7.453348,6.108606 14.848751,12.272224 22.148193,18.563965 C 88.334687,69.305206 93.653063,73.663508 99,78 c 1.28431,1.054127 2.56814,2.108856 3.85156,3.164062 6.94985,5.698971 13.89128,11.256387 21.30469,16.347657 L 126,99 l 1.63518,1.38128 4.63749,2.8596 c 3.24613,2.02549 2.57616,1.54394 5.53983,3.94662 C 150.04342,114.67684 162.076,119.02171 176,123 v 142 l -22,5 c -7.68442,2.65813 -15.26383,5.35272 -22.70703,8.60547 C 120.18198,283.37082 108.84651,285.76131 97,288 l -3.847656,0.75391 c -39.328866,6.70325 -80.331581,-5.91307 -114.684571,-24.4253 -1.587867,-0.85488 -3.183137,-1.69623 -4.787109,-2.5205 -10.861948,-5.62137 -10.861948,-5.62137 -12.594726,-10.24952 -0.09881,-3.0137 0.334782,-5.59702 0.914062,-8.55859 0.178162,-1.41787 0.344054,-2.83732 0.5,-4.25781 0.435358,-3.92471 0.950497,-7.83189 1.5,-11.74219 3.566212,0 4.310623,0.70866 7.097656,2.81641 l 2.412842,1.8059 2.552002,1.94019 c 1.736556,1.29744 3.47353,2.59432 5.210938,3.89062 C -17.15095,238.63529 -15.575417,239.81757 -14,241 18.33104,265.09659 56.056686,274.79505 96.008789,270.69092 101.1631,269.93087 106.07429,268.68491 111,267 l 2.01855,-0.68164 c 8.4933,-2.95738 18.21448,-6.44924 24.62207,-12.99414 C 139,252 139,252 141,252 c 1.20628,-2.33214 2.16547,-4.49642 3,-7 l -1.65796,0.6709 C 105.56227,260.4335 67.248489,264.17325 29.757812,248.65234 14.402675,241.99524 -1.7772067,233.65968 -14,222 v -2 l 1.813232,-0.69922 C 9.3435969,211.26388 9.3435969,211.26388 27,197 c -5.127272,1.02545 -10.104279,2.30488 -15.102295,3.82861 -18.6006329,5.65026 -36.446042,6.1151 -55.776611,4.40576 -30.251274,-2.27168 -59.489364,5.71359 -88.332034,13.8584 -8.10575,2.25573 -16.22532,4.19894 -24.47656,5.84473 l -3.01978,0.60376 C -168.82848,227.28658 -177.71782,228.14971 -187,228 l -1,-2 3.40234,-0.88281 c 14.1221,-3.58316 14.1221,-3.58316 24.59766,-13.11719 1.2004,-9.63094 -0.99496,-18.40346 -3.75,-27.5625 l -1.05469,-3.76758 C -166.90162,172.9434 -166.90162,172.9434 -172,167 c -9.37451,-2.06634 -18.754,1.80274 -26.5625,6.75 l -1.87891,1.29687 C -202,176 -202,176 -204,176 v 2 l 3.625,-0.9375 c 5.54513,-1.36213 10.84373,-2.19035 16.5625,-2.4375 l 3.10547,-0.14844 C -178,175 -178,175 -176.27344,177.01953 -172.457,185.95186 -168.60687,199.39774 -171,209 c -4.23102,6.44615 -11.77227,9.26121 -19,11 -8.65977,1.46519 -14.4639,1.69467 -21.83203,-3.22266 C -217.78519,212.27801 -220.48133,206.19593 -222,199 c -1.03282,-8.55042 1.73755,-15.79831 5.75,-23.25 22.36566,-27.3358 72.61781,-31.17422 105.17474,-35.47455 6.91897,-0.91836 13.833417,-1.8691 20.746342,-2.83179 2.669176,-0.36776 5.339897,-0.72191 8.011047,-1.07501 15.309365,-2.08107 31.045893,-4.81554 45.255371,-11.11865 l 2.351318,-1.02197 C -20.297371,117.72876 -7.7094955,108.14 -0.4375,93.875 L 0.57739258,91.884521 C 2.7790546,87.239276 3.5837271,83.120727 4,78 l -2.7460938,2.816406 c -11.8162892,12.02422 -11.8162892,12.02422 -18.3867182,16.753906 -1.952353,1.4179 -1.952353,1.4179 -3.71875,3.374998 -2.579797,2.46723 -5.294164,4.0501 -8.398438,5.80469 l -3.265625,1.85938 L -35,110 c -1.285704,-3.85711 -0.472941,-5.53248 0.695313,-9.40625 l 0.569168,-1.917679 c 0.403522,-1.356875 0.810843,-2.712626 1.221572,-4.067337 1.067918,-3.524481 2.107149,-7.057437 3.150666,-10.589203 l 0.625686,-2.10881 C -25.32975,70.401672 -22.131569,58.820517 -20,47 c -3.407531,2.756092 -4.818867,6.552587 -6.546875,10.457031 l -1.013,2.240647 c -1.069808,2.368772 -2.130484,4.741487 -3.190125,7.114822 -1.386782,3.091584 -2.777709,6.18127 -4.171875,9.269531 l -1.027466,2.278595 C -39.114177,85.336259 -42.5079,92.182711 -46,99 c -6.826163,-3.276347 -11.497514,-9.397256 -16.351562,-15.085938 -1.049183,-1.218245 -2.125163,-2.414271 -3.234375,-3.578125 -3.429035,-3.694264 -3.429035,-3.694264 -3.359375,-6.679687 1.279581,-3.595517 3.300284,-5.360999 6.070312,-7.96875 3.322696,-3.185612 6.574721,-6.367306 9.5625,-9.875 2.949752,-3.45663 6.111091,-6.629538 9.347656,-9.816406 1.887151,-1.917166 3.651698,-3.891847 5.402344,-5.933594 2.569153,-2.990517 5.255673,-5.793667 8.0625,-8.5625 3.322639,-3.28355 6.441007,-6.657917 9.488281,-10.195313 C -14.434966,13.770155 -7.845837,6.2410067 0,0 Z" fill="#fefefe" transform="translate(332,157)" id="path3" sodipodi:nodetypes="ccccccccccccccccccccccccccccccccccccccccccccccccccccccccccccccccccccccccccccccccccccccccccccccccccccccc"></path><path d="M0 0 C1.88525391 0.04060547 1.88525391 0.04060547 3.80859375 0.08203125 C5.17177734 0.13423828 5.17177734 0.13423828 6.5625 0.1875 C5.06573111 3.60979969 3.08831023 6.01220213 0.5625 8.75 C-0.23929688 9.62527344 -1.04109375 10.50054687 -1.8671875 11.40234375 C-2.71539062 12.32144531 -3.56359375 13.24054688 -4.4375 14.1875 C-6.14737887 16.06109068 -7.85572001 17.93608591 -9.5625 19.8125 C-10.32820312 20.65039062 -11.09390625 21.48828125 -11.8828125 22.3515625 C-13.87498248 24.56305394 -15.83733477 26.79228075 -17.7890625 29.0390625 C-21.32939084 33.09511172 -24.98882901 37.02606071 -28.6875 40.9375 C-34.22348006 46.80677279 -34.22348006 46.80677279 -39.6796875 52.75 C-40.17049805 53.29172852 -40.66130859 53.83345703 -41.16699219 54.39160156 C-42.47121922 55.8363821 -43.77093819 57.28522857 -45.0703125 58.734375 C-47.4375 61.1875 -47.4375 61.1875 -52.4375 65.1875 C-52.4375 60.2375 -52.4375 55.2875 -52.4375 50.1875 C-53.4275 50.1875 -54.4175 50.1875 -55.4375 50.1875 C-55.69789063 50.89777344 -55.95828125 51.60804688 -56.2265625 52.33984375 C-63.97333705 70.55725874 -80.9153742 84.07945808 -98.765625 91.62890625 C-100.4375 92.1875 -100.4375 92.1875 -102.4375 92.1875 C-102.71722656 91.09953125 -102.99695313 90.0115625 -103.28515625 88.890625 C-106.71202206 76.10808 -110.93481298 63.91430498 -122.4375 56.1875 C-123.9225 55.6925 -123.9225 55.6925 -125.4375 55.1875 C-125.18355469 55.99832031 -124.92960937 56.80914062 -124.66796875 57.64453125 C-123.94520998 59.96981134 -123.23233285 62.29817716 -122.52734375 64.62890625 C-121.88392542 66.72981698 -121.21843143 68.82454039 -120.50390625 70.90234375 C-116.12106564 84.51221721 -117.99988838 97.90395629 -122.4375 111.1875 C-122.94603516 112.80205078 -122.94603516 112.80205078 -123.46484375 114.44921875 C-125.75676197 121.08028463 -128.87652617 127.02014452 -132.5 133 C-133.13542725 134.06915649 -133.13542725 134.06915649 -133.78369141 135.15991211 C-135.03515625 137.14453125 -135.03515625 137.14453125 -137.4375 140.1875 C-141.4375 140.1875 -141.4375 140.1875 -143.40234375 138.6484375 C-144.05332031 137.96007812 -144.70429688 137.27171875 -145.375 136.5625 C-146.06851563 135.83675781 -146.76203125 135.11101562 -147.4765625 134.36328125 C-149.12829573 132.53058123 -150.70597803 130.67300918 -152.25 128.75 C-154.24697276 125.96422016 -154.24697276 125.96422016 -157.4375 125.1875 C-157.0765625 126.28707031 -156.715625 127.38664062 -156.34375 128.51953125 C-152.72400833 139.87177229 -149.98783606 148.64467008 -155.3125 159.9375 C-161.85952365 172.32886519 -170.20189039 183.63385321 -179.03759766 194.47021484 C-179.97944755 195.6255989 -180.91655241 196.7848656 -181.84912109 197.94775391 C-193.84981451 212.89365726 -193.84981451 212.89365726 -202.4375 217.1875 C-205.375 217.5 -205.375 217.5 -208.4375 217.1875 C-210.97871125 214.51136378 -211.86638797 212.59170571 -211.8671875 208.921875 C-211.62731435 201.54240673 -209.51215184 194.51141852 -207.5625 187.4375 C-207.26404678 186.33249649 -207.26404678 186.33249649 -206.95956421 185.20516968 C-201.69884997 165.73782999 -195.71239972 146.31234129 -187.88256836 127.71264648 C-186.43657837 124.18525174 -185.12226497 120.62971994 -183.8203125 117.046875 C-180.14759826 107.12249599 -175.85326692 97.48148123 -171.5625 87.8125 C-170.78996463 86.06267652 -170.0178279 84.31267699 -169.24609375 82.5625 C-167.72713609 79.11980662 -166.20380482 75.67910275 -164.67675781 72.23999023 C-163.17200787 68.85028823 -161.67743688 65.45635927 -160.19042969 62.05883789 C-159.65094193 60.8313533 -159.65094193 60.8313533 -159.10055542 59.57907104 C-158.42460676 58.04096289 -157.75134189 56.50167126 -157.08132935 54.96096802 C-151.10458411 41.40073624 -143.03461759 36.98870456 -129.51782227 31.70410156 C-123.3365593 29.35843351 -117.0034591 27.59464517 -110.625 25.875 C-109.14621394 25.47006671 -107.66745546 25.06503269 -106.1887207 24.65991211 C-89.94794805 20.23909621 -73.64578118 16.04093998 -57.35058975 11.82596207 C-55.14175629 11.25433637 -52.93321052 10.68160969 -50.72470093 10.10873413 C-47.18024634 9.18992702 -43.63456574 8.27599156 -40.08796692 7.36549759 C-38.151296 6.8674769 -36.21558045 6.36574554 -34.27990723 5.86386108 C-10.20814042 -0.29166115 -10.20814042 -0.29166115 0 0 Z " fill="#FEFEFE" transform="translate(276.4375,135.8125)" id="path4"></path><path d="M0 0 C3.81731102 1.7268788 6.67156236 4.45687473 8.625 8.1875 C8.55906491 11.61063032 7.81392826 12.96563597 5.5859375 15.58203125 C4.73257812 16.37996094 3.87921875 17.17789063 3 18 C-0.16191858 21.03148381 -3.21725366 24.04366374 -6.0625 27.375 C-8.77730231 30.54756757 -11.64733578 33.48175835 -14.625 36.40625 C-16.45742487 38.27139674 -18.16853135 40.20677746 -19.875 42.1875 C-22.1205794 44.79397609 -24.42051512 47.27684521 -26.875 49.6875 C-29.30889732 52.07803167 -31.58855559 54.53796262 -33.8125 57.125 C-36.85179651 60.65384763 -40.08516847 63.91755027 -43.40234375 67.18359375 C-45.94837829 69.76996151 -48.29521557 72.5028528 -50.66015625 75.25390625 C-52.87669397 77.75319138 -55.24662281 80.07031884 -57.62890625 82.41015625 C-59.43977643 84.25343574 -61.12821354 86.16572799 -62.8125 88.125 C-65.85179651 91.65384763 -69.08516847 94.91755027 -72.40234375 98.18359375 C-74.94837829 100.76996151 -77.29521557 103.5028528 -79.66015625 106.25390625 C-81.87669397 108.75319138 -84.24662281 111.07031884 -86.62890625 113.41015625 C-88.43977643 115.25343574 -90.12821354 117.16572799 -91.8125 119.125 C-94.23117779 121.93326347 -96.73399683 124.58720593 -99.375 127.1875 C-101.99540609 129.76759215 -104.47823412 132.39853607 -106.875 135.1875 C-109.89262353 138.69891648 -113.10859081 141.94057402 -116.40625 145.1875 C-118.31486455 147.12641002 -120.10210552 149.12449551 -121.875 151.1875 C-124.89262353 154.69891648 -128.10859081 157.94057402 -131.40625 161.1875 C-133.31486455 163.12641002 -135.10210552 165.12449551 -136.875 167.1875 C-139.89262353 170.69891648 -143.10859081 173.94057402 -146.40625 177.1875 C-148.31486455 179.12641002 -150.10210552 181.12449551 -151.875 183.1875 C-154.27176588 185.97646393 -156.75459391 188.60740785 -159.375 191.1875 C-161.93369259 193.70705389 -164.35670611 196.26868782 -166.6875 199 C-169.59750413 202.38945561 -172.69659176 205.55202146 -175.875 208.6875 C-179.63923728 212.40096355 -183.20838308 216.2087398 -186.63671875 220.234375 C-188.60531801 222.44628428 -190.69192498 224.49611344 -192.8125 226.5625 C-195.73923624 229.4453352 -198.33932638 232.34804496 -200.8125 235.625 C-205.66537136 241.89123308 -211.37594419 247.31693496 -217.02905273 252.85522461 C-220.73285375 256.49294954 -224.15840495 260.10518563 -227.375 264.1875 C-232.58084353 268.78157034 -238.91634901 271.46234407 -245.25 274.125 C-245.99983154 274.44388184 -246.74966309 274.76276367 -247.5222168 275.09130859 C-253.0044699 277.31101003 -253.0044699 277.31101003 -256.375 276.1875 C-255.97821045 275.7656543 -255.5814209 275.34380859 -255.17260742 274.90917969 C-246.84796964 266.05486866 -238.55081961 257.17962609 -230.375 248.1875 C-229.53839844 247.26839844 -228.70179688 246.34929687 -227.83984375 245.40234375 C-224.22653101 241.41301147 -220.72396515 237.40246018 -217.375 233.1875 C-209.179996 223.45593274 -200.43645196 214.15057698 -191.37890625 205.22265625 C-189.49821793 203.31263946 -187.74087495 201.34969409 -186 199.3125 C-182.3065206 195.00057754 -178.27727403 191.05677934 -174.21875 187.09375 C-171.40098916 184.27998527 -168.81554014 181.28473451 -166.20947266 178.27587891 C-163.1647793 174.8097747 -159.98662164 171.47222694 -156.8125 168.125 C-155.39948973 166.62914222 -153.98673415 165.13304383 -152.57421875 163.63671875 C-151.87087402 162.89212402 -151.1675293 162.1475293 -150.44287109 161.38037109 C-141.51059977 151.9081561 -132.66403597 142.35579222 -123.84277344 132.78027344 C-121.35533784 130.08100034 -118.86498994 127.38441656 -116.375 124.6875 C-115.37629532 123.605475 -114.3775974 122.52344375 -113.37890625 121.44140625 C-111.36645294 119.26119388 -109.35337243 117.08156299 -107.33984375 114.90234375 C-101.12268877 108.17251631 -94.92098807 101.42885103 -88.73388672 94.67138672 C-86.90720583 92.67667482 -85.07950295 90.68290093 -83.25170898 88.68920898 C-82.33576778 87.69010376 -81.41991455 86.69091789 -80.50415039 85.69165039 C-78.18906372 83.16553926 -75.87288212 80.64044702 -73.5546875 78.1171875 C-68.56884186 72.68815558 -63.61078108 67.23594178 -58.6875 61.75 C-55.63140539 58.36351679 -52.54514388 55.00505186 -49.45874023 51.64624023 C-46.59897796 48.53116875 -43.75984641 45.39898325 -40.9375 42.25 C-37.41183334 38.31922982 -33.83887316 34.43537673 -30.25 30.5625 C-26.510524 26.52563168 -22.82837285 22.45368071 -19.2265625 18.29296875 C-16.74871595 15.47533312 -14.22123191 12.70487095 -11.6875 9.9375 C-10.9912854 9.17554321 -10.9912854 9.17554321 -10.28100586 8.39819336 C-8.98634711 6.98785262 -7.68092273 5.58741717 -6.375 4.1875 C-5.29412109 3.02541016 -5.29412109 3.02541016 -4.19140625 1.83984375 C-2.375 0.1875 -2.375 0.1875 0 0 Z " fill="#FCFCFC" transform="translate(406.375,24.8125)" id="path5"></path><path d="M0 0 C1.52219408 1.18025193 3.02028747 2.39190622 4.5 3.625 C5.4590625 4.35203125 6.418125 5.0790625 7.40625 5.828125 C18.81108221 14.75615021 26.01883762 24.7213935 30.5 38.625 C30.83 39.615 31.16 40.605 31.5 41.625 C32.12840126 51.1356114 32.09517186 59.10507053 26.1875 66.9375 C23.39530988 69.72969012 21.17455294 71.2177244 17.5 72.625 C16.18 72.625 14.86 72.625 13.5 72.625 C13.53480469 71.4184375 13.56960937 70.211875 13.60546875 68.96875 C13.63362984 67.35418072 13.66092749 65.73959621 13.6875 64.125 C13.71263672 63.33351563 13.73777344 62.54203125 13.76367188 61.7265625 C13.85353042 54.41806724 12.32331194 47.72368111 7.29296875 42.07421875 C0.38997795 36.49467716 -7.74501345 33.45981157 -16.5 33.625 C-14.93028409 38.33414772 -10.39641183 39.76503805 -6.22265625 42.04492188 C-1.0446914 44.98995296 2.772871 48.170742 5.5 53.625 C5.62207871 55.41359511 5.67548448 57.20728381 5.6875 59 C5.70167969 59.95648438 5.71585938 60.91296875 5.73046875 61.8984375 C5.49745572 64.65510017 4.90920164 66.27447395 3.5 68.625 C-1.61356163 68.14314515 -4.93762498 65.57963348 -9 62.6875 C-9.69689941 62.19967041 -10.39379883 61.71184082 -11.11181641 61.20922852 C-27.42188405 49.70311595 -27.42188405 49.70311595 -32.5 44.625 C-32.85553013 39.9142258 -32.37911277 35.70429889 -31.5625 31.0625 C-29.88338609 21.01163376 -29.82054535 10.79254226 -29.5 0.625 C-8.13431411 -5.16441166 -8.13431411 -5.16441166 0 0 Z " fill="#FDFDFD" transform="translate(209.5,396.375)" id="path6"></path><path d="M0 0 C1.69576172 0.63228516 1.69576172 0.63228516 3.42578125 1.27734375 C17.90451723 6.31408903 31.75015014 7.02411861 47 7 C50.82253959 14.0449243 49.70724786 23.14996597 47.875 30.75 C44.93523891 40.10754939 40.18092297 47.60049237 31.5 52.375 C28.16822202 53.2079445 26.27255946 53.09085315 23 52 C17.08864353 46.82756309 14.83983287 39.1354588 12 32 C11.3268622 30.31899468 10.65368309 28.63800591 9.98046875 26.95703125 C8.94552603 24.37098875 7.91311141 21.78415485 6.89135742 19.19287109 C4.98050635 14.36213868 2.95494481 9.62055978 0.73876953 4.92114258 C0 3 0 3 0 0 Z " fill="#FDFDFD" transform="translate(117,391)" id="path7"></path><path d="M0 0 C4.19961408 1.52884827 5.78114469 4.21944384 8.1875 7.875 C8.97167034 9.05100804 9.75819241 10.2254508 10.546875 11.3984375 C10.94841797 11.99624023 11.34996094 12.59404297 11.76367188 13.20996094 C14.40571705 17.03529174 17.29642834 20.67689565 20.15234375 24.34375 C21.89740264 26.85250274 23.00466232 29.12342199 24 32 C18.34898302 34.30274131 13.0921865 35.70452586 7.0625 36.5625 C6.23621094 36.68544434 5.40992188 36.80838867 4.55859375 36.93505859 C2.04071621 37.30321156 -0.47887216 37.65486647 -3 38 C-3.73492676 38.10199707 -4.46985352 38.20399414 -5.22705078 38.30908203 C-16.45696394 39.83726041 -27.68067428 40.52784371 -39 41 C-33.43312161 34.27824246 -27.2914864 28.2329006 -21.07617188 22.11523438 C-16.6963651 17.77737307 -12.48689008 13.37696281 -8.47192383 8.69897461 C-6.75018548 6.71165048 -4.94055635 4.83972867 -3.0625 3 C-2.47597656 2.4225 -1.88945312 1.845 -1.28515625 1.25 C-0.86105469 0.8375 -0.43695313 0.425 0 0 Z " fill="#FDFDFD" transform="translate(252,243)" id="path8"></path><path d="M0 0 C0.80775879 -0.00999023 1.61551758 -0.01998047 2.44775391 -0.03027344 C4.69921875 0.00390625 4.69921875 0.00390625 8.3125 0.4375 C12.81422288 7.19008432 9.73763265 16.91738039 8.3125 24.4375 C4.32341296 25.9839246 0.76180519 24.90031609 -3.2421875 23.9609375 C-3.98018585 23.79381256 -4.7181842 23.62668762 -5.47854614 23.45449829 C-7.04466287 23.09733041 -8.60974253 22.73558895 -10.17382812 22.36962891 C-12.51675746 21.8231689 -14.8632796 21.29525203 -17.2109375 20.76953125 C-26.64895614 18.61597494 -35.65631103 15.93760847 -44.6875 12.4375 C-44.6875 11.1175 -44.6875 9.7975 -44.6875 8.4375 C-30.29102729 3.41609579 -15.28237063 0.11157158 0 0 Z " fill="#FCFCFC" transform="translate(271.6875,378.5625)" id="path9"></path><path d="M0 0 C0.8680908 1.91040052 1.71901783 3.82860737 2.5625 5.75 C3.03816406 6.81734375 3.51382813 7.8846875 4.00390625 8.984375 C5.02133302 12.06458466 5.36888821 13.12291195 4 16 C2.36328125 17.96484375 2.36328125 17.96484375 0.3125 19.9375 C-0.41195312 20.63746094 -1.13640625 21.33742188 -1.8828125 22.05859375 C-3.55912457 23.59572862 -5.30062582 25.06173536 -7.0625 26.5 C-13.51407125 31.99069894 -18.59499458 38.90496662 -23.88671875 45.484375 C-25.83801684 47.80717716 -27.71652656 50.00137703 -30 52 C-34.98885926 52 -38.0657073 49.90388271 -42 47 C-40.56986935 42.47814183 -38.03926091 39.53967698 -34.8125 36.1875 C-33.80659531 35.11784193 -32.80138548 34.04752998 -31.796875 32.9765625 C-31.31154297 32.46254883 -30.82621094 31.94853516 -30.32617188 31.41894531 C-28.69284224 29.67135476 -27.12167126 27.87638736 -25.5625 26.0625 C-21.96682877 21.91364858 -18.23281427 17.8967455 -14.49487305 13.87646484 C-10.74333036 9.83397168 -7.0980574 5.7122742 -3.5234375 1.51171875 C-2 0 -2 0 0 0 Z " fill="#FBFBFB" transform="translate(96,358)" id="path10"></path><path d="M0 0 C3.9069283 1.30230943 4.23708974 2.73116269 6.125 6.3125 C6.90230469 7.76076172 6.90230469 7.76076172 7.6953125 9.23828125 C10.73537238 15.67337805 10.88025291 22.01692069 8.875 28.8125 C6.58074741 32.7127294 5.14779233 34.148307 1 36 C-5.81604302 37.10474092 -10.85980967 36.23531396 -16.63671875 32.484375 C-18 31 -18 31 -18 27 C-16.171875 25.47265625 -16.171875 25.47265625 -13.75 24.0625 C-6.42581085 19.44333219 -3.69209943 14.0762983 -1 6 C-0.23394542 2.59880678 -0.23394542 2.59880678 0 0 Z " fill="#FCFCFC" transform="translate(252,451)" id="path11"></path><path d="M0 0 C4.591665 1.67396305 7.37196582 3.79383026 11 7 C10.05221386 14.85053046 -0.86892814 20.95240605 -6.77856445 25.62866211 C-9.50747014 27.76774165 -12.24989611 29.88824139 -15 32 C-15.66 31.34 -16.32 30.68 -17 30 C-11.44387726 19.93341514 -5.85903814 9.89440216 0 0 Z " fill="#F9F9F9" transform="translate(47,414)" id="path12"></path><path d="M0 0 C0.99 0 1.98 0 3 0 C10.59043696 27.30346499 10.59043696 27.30346499 9 37 C8.01 37.66 7.02 38.32 6 39 C-1.27789242 29.46345131 -3.02245232 16.74953683 -2 5 C-0.98828125 2.1640625 -0.98828125 2.1640625 0 0 Z " fill="#070707" transform="translate(211,317)" id="path13"></path><path d="M0 0 C-0.66386719 0.72445312 -1.32773438 1.44890625 -2.01171875 2.1953125 C-10.28714623 10.29935262 -10.28714623 10.29935262 -16 20 C-16.66 20 -17.32 20 -18 20 C-17.41143154 12.93717854 -15.44450669 6.8160605 -9.9375 2.0625 C-6.18672252 -0.57102462 -4.3212473 -1.34107675 0 0 Z " fill="#242424" transform="translate(185,239)" id="path14"></path></svg></g></g></svg></g><g id="dark-icon"><svg xmlns="http://www.w3.org/2000/svg" version="1.1" xmlns:xlink="http://www.w3.org/1999/xlink" width="1000" height="1000"><g clip-path="url(#SvgjsClipPath1012)"><rect width="1000" height="1000" fill="#ffffff"></rect><g transform="matrix(1.3779527559055118,0,0,1.3779527559055118,150,150)"><svg xmlns="http://www.w3.org/2000/svg" version="1.1" width="508" height="508" id="svg14" sodipodi:docname="Scribe Logo.svg" inkscape:version="1.3.2 (091e20e, 2023-11-25, custom)" xmlns:inkscape="http://www.inkscape.org/namespaces/inkscape" xmlns:sodipodi="http://sodipodi.sourceforge.net/DTD/sodipodi-0.dtd" xmlns:svg="http://www.w3.org/2000/svg"><defs id="defs14"><clipPath id="SvgjsClipPath1012"><rect width="1000" height="1000" x="0" y="0" rx="350" ry="350"></rect></clipPath></defs><sodipodi:namedview id="namedview14" pagecolor="#ffffff" bordercolor="#000000" borderopacity="0.25" inkscape:showpageshadow="2" inkscape:pageopacity="0.0" inkscape:pagecheckerboard="0" inkscape:deskcolor="#d1d1d1" inkscape:zoom="2" inkscape:cx="245.25" inkscape:cy="257" inkscape:window-width="2400" inkscape:window-height="1262" inkscape:window-x="12" inkscape:window-y="-8" inkscape:window-maximized="1" inkscape:current-layer="svg14"></sodipodi:namedview><path d="M0 0 C167.64 0 335.28 0 508 0 C508 167.64 508 335.28 508 508 C340.36 508 172.72 508 0 508 C0 340.36 0 172.72 0 0 Z " fill="#020202" transform="translate(0,0)" id="path1"></path><path d="m 0,0 h 508 v 264 c -14,-4 -14,-4 -18,-6 l -2.38649,-1.64645 -7.37453,-4.14782 c 0,0 -23.85629,-16.01776 -37.23898,-27.20573 -2.59914,-2.13119 -5.2049,-4.25417 -7.8125,-6.375 l -2.07422,-1.68726 c -4.89939,-3.97555 -9.84493,-7.88742 -14.81909,-11.76879 -4.52272,-3.53825 -8.97479,-7.15805 -13.41919,-10.79395 -5.47018,-4.46704 -11.0107,-8.8003 -16.6875,-13.00391 -3.90141,-2.90215 -7.76449,-5.85237 -11.625,-8.80859 l -2.20361,-1.68652 c -3.86203,-2.95775 -7.71884,-5.92215 -11.57129,-8.89234 C 356.23413,156.93105 349.63281,151.94772 343,147 c 0.41157,-4.96572 2.57415,-6.96967 6.125,-10.3125 3.91847,-3.71766 7.53359,-7.52605 11.06299,-11.61499 2.97264,-3.39999 6.08369,-6.66718 9.18701,-9.94751 5.62336,-5.97128 11.16896,-12.00002 16.625,-18.125 1.49913,-1.667451 2.99915,-3.334103 4.5,-5 2.19574,-2.437608 4.38977,-4.876486 6.57422,-7.324219 4.5191,-5.053714 9.10846,-10.036241 13.73828,-14.988281 l 1.80542,-1.932617 c 2.35974,-2.525129 4.71961,-5.050092 7.08667,-7.56836 C 430.07489,49.989407 430.07489,49.989407 437.1875,37.625 436.71778,28.543734 430.5025,20.940122 424,15 418.734,11.080896 412.70268,8.2513585 406,9 c -4.53095,1.84705 -7.55052,4.190728 -10.9375,7.6875 l -2.60938,2.6875 c -2.6754,2.862857 -5.26134,5.784955 -7.80859,8.761719 -2.18727,2.478212 -4.53733,4.766923 -6.89453,7.082031 -1.83242,1.865147 -3.54353,3.800527 -5.25,5.78125 -2.78239,3.229564 -5.71019,6.233227 -8.75,9.21875 -1.83242,1.865147 -3.54353,3.800527 -5.25,5.78125 -2.75359,3.196129 -5.6471,6.172618 -8.65698,9.125732 -1.7742,1.804277 -3.43235,3.662565 -5.0813,5.581299 -3.70888,4.265455 -7.55904,8.380676 -11.44922,12.480469 -4.83993,5.121019 -9.6671,10.251606 -14.4375,15.4375 -4.44265,4.8272 -8.90165,9.63873 -13.375,14.4375 l -1.78174,1.91455 c -1.09053,1.16881 -2.18485,2.33411 -3.28369,3.49512 -1.22498,1.30461 -2.4191,2.63809 -3.60645,3.97705 C 295,124 295,124 291.25,123.75 l -2.38672,-0.37891 c -3.49291,-0.45269 -6.90353,-0.52748 -10.42578,-0.55859 l -3.69141,-0.043 c -12.23773,0.36183 -24.15911,2.75386 -35.99609,5.73047 -1.42829,0.35324 -2.8566,0.70643 -4.28491,1.05957 C 217.88076,133.69096 201.42229,138.27026 185,143 l -2.55811,0.73425 c -5.31224,1.52595 -10.61924,3.06863 -15.92086,4.63111 -1.68318,0.49491 -3.36732,0.98653 -5.05255,1.47436 -9.15118,2.65597 -18.05325,5.63914 -26.85129,9.31262 l -2.40248,0.99967 c -15.69094,6.7437 -21.94722,20.89241 -28.09557,36.01449 -1.2514,3.15131 -2.49003,6.30747 -3.7229,9.46607 -2.731537,6.91054 -5.771875,13.65486 -8.869049,20.4082 -4.907084,10.71908 -9.424207,21.5076 -13.464691,32.58423 l -1.284424,3.51123 c -5.640861,15.72705 -10.41563,31.61136 -14.39331,47.83765 -0.642557,2.62039 -1.294214,5.2384 -1.947266,7.8562 -6.486103,20.82555 -6.486103,20.82555 -2.992188,41.31054 C 60.611119,362.92687 64.822505,365.44886 69,368 c -2.040467,3.63178 -4.286184,6.58268 -7.125,9.625 C 57.035412,382.92587 52.43505,388.35608 48,394 l -2.261719,2.82422 c -7.971351,10.5011 -13.839163,22.20332 -19.935562,33.84729 -3.056514,5.83301 -6.200251,11.61631 -9.365219,17.39099 l -1.405762,2.57031 -1.348144,2.46485 -1.305176,2.40283 c -0.996293,1.8066 -2.015925,3.60039 -3.0498047,5.38574 l -1.6684571,2.92236 -1.5388183,2.64624 C 4.9133105,469.19676 4.7736951,471.03876 5,474 c 2.1598161,0.8869 2.1598161,0.8869 5,1 5.523123,-2.844 10.583599,-6.34634 15.6875,-9.875 l 2.483154,-1.71045 c 1.731644,-1.19454 3.462174,-2.3907 5.191651,-3.58838 1.746548,-1.2092 3.494577,-2.41626 5.24414,-3.62109 C 62.500196,439.74714 84.623768,421.69133 105,401 c 2.83346,2.42314 3.82237,4.69685 5.01563,8.19922 l 1.09252,3.14307 1.14185,3.34521 c 6.52702,21.43414 6.52702,21.43414 20.375,38.1875 5.9634,2.82477 12.71741,3.20833 19.03906,1.33594 3.70877,-1.46782 7.19613,-3.13586 10.71094,-5.02344 3.00815,-1.36083 3.61681,-1.24827 6.625,-0.1875 1.78906,1.08472 1.78906,1.08472 3.625,2.44922 l 2.10962,1.54907 L 177,455.6875 c 1.62271,1.19145 3.24645,2.3815 4.87109,3.57031 l 2.5542,1.87207 c 4.17438,3.03202 8.40398,5.98358 12.63721,8.93262 9.70863,6.76662 9.70863,6.76662 14.48828,10.17187 C 231.72711,496.0406 231.72711,496.0406 256,500 c 5.83004,-1.88116 10.9214,-4.55325 14,-10 4.35968,-9.40533 5.39988,-17.0484 2.375,-27 -2.61704,-7.12668 -6.20904,-13.2068 -10.82031,-19.21875 C 253.68082,433.48653 247.74434,422.60546 242,411 l -1,-2 c 22.98552,2.20555 44.59106,14.01571 64.375,25.1875 42.92082,24.23515 94.3987,37.24283 143.07397,23.96289 9.744,-2.86328 19.06033,-6.72807 28.44019,-10.59546 C 486.91006,443.48779 497.09148,440 508,440 v 68 H 0 Z" fill="#fefefe" id="path2" sodipodi:nodetypes="ccccccccccccccscccccccccccccccccscscccccccccccccccccccccccccccccccccccccccccccccccccccccccccccccccccccccccccc"></path><path d="m 0,0 c 3.9648766,1.3662275 6.6420111,3.1488788 9.8125,5.875 4.560911,3.8252803 9.220851,7.451722 14,11 C 35.11624,25.289857 46.128619,34.033913 57,43 c 1.322655,1.083653 2.645592,2.166961 3.96875,3.25 7.453348,6.108606 14.848751,12.272224 22.148193,18.563965 C 88.334687,69.305206 93.653063,73.663508 99,78 c 1.28431,1.054127 2.56814,2.108856 3.85156,3.164062 6.94985,5.698971 13.89128,11.256387 21.30469,16.347657 L 126,99 l 1.63518,1.38128 4.63749,2.8596 c 3.24613,2.02549 2.57616,1.54394 5.53983,3.94662 C 150.04342,114.67684 162.076,119.02171 176,123 v 142 l -22,5 c -7.68442,2.65813 -15.26383,5.35272 -22.70703,8.60547 C 120.18198,283.37082 108.84651,285.76131 97,288 l -3.847656,0.75391 c -39.328866,6.70325 -80.331581,-5.91307 -114.684571,-24.4253 -1.587867,-0.85488 -3.183137,-1.69623 -4.787109,-2.5205 -10.861948,-5.62137 -10.861948,-5.62137 -12.594726,-10.24952 -0.09881,-3.0137 0.334782,-5.59702 0.914062,-8.55859 0.178162,-1.41787 0.344054,-2.83732 0.5,-4.25781 0.435358,-3.92471 0.950497,-7.83189 1.5,-11.74219 3.566212,0 4.310623,0.70866 7.097656,2.81641 l 2.412842,1.8059 2.552002,1.94019 c 1.736556,1.29744 3.47353,2.59432 5.210938,3.89062 C -17.15095,238.63529 -15.575417,239.81757 -14,241 18.33104,265.09659 56.056686,274.79505 96.008789,270.69092 101.1631,269.93087 106.07429,268.68491 111,267 l 2.01855,-0.68164 c 8.4933,-2.95738 18.21448,-6.44924 24.62207,-12.99414 C 139,252 139,252 141,252 c 1.20628,-2.33214 2.16547,-4.49642 3,-7 l -1.65796,0.6709 C 105.56227,260.4335 67.248489,264.17325 29.757812,248.65234 14.402675,241.99524 -1.7772067,233.65968 -14,222 v -2 l 1.813232,-0.69922 C 9.3435969,211.26388 9.3435969,211.26388 27,197 c -5.127272,1.02545 -10.104279,2.30488 -15.102295,3.82861 -18.6006329,5.65026 -36.446042,6.1151 -55.776611,4.40576 -30.251274,-2.27168 -59.489364,5.71359 -88.332034,13.8584 -8.10575,2.25573 -16.22532,4.19894 -24.47656,5.84473 l -3.01978,0.60376 C -168.82848,227.28658 -177.71782,228.14971 -187,228 l -1,-2 3.40234,-0.88281 c 14.1221,-3.58316 14.1221,-3.58316 24.59766,-13.11719 1.2004,-9.63094 -0.99496,-18.40346 -3.75,-27.5625 l -1.05469,-3.76758 C -166.90162,172.9434 -166.90162,172.9434 -172,167 c -9.37451,-2.06634 -18.754,1.80274 -26.5625,6.75 l -1.87891,1.29687 C -202,176 -202,176 -204,176 v 2 l 3.625,-0.9375 c 5.54513,-1.36213 10.84373,-2.19035 16.5625,-2.4375 l 3.10547,-0.14844 C -178,175 -178,175 -176.27344,177.01953 -172.457,185.95186 -168.60687,199.39774 -171,209 c -4.23102,6.44615 -11.77227,9.26121 -19,11 -8.65977,1.46519 -14.4639,1.69467 -21.83203,-3.22266 C -217.78519,212.27801 -220.48133,206.19593 -222,199 c -1.03282,-8.55042 1.73755,-15.79831 5.75,-23.25 22.36566,-27.3358 72.61781,-31.17422 105.17474,-35.47455 6.91897,-0.91836 13.833417,-1.8691 20.746342,-2.83179 2.669176,-0.36776 5.339897,-0.72191 8.011047,-1.07501 15.309365,-2.08107 31.045893,-4.81554 45.255371,-11.11865 l 2.351318,-1.02197 C -20.297371,117.72876 -7.7094955,108.14 -0.4375,93.875 L 0.57739258,91.884521 C 2.7790546,87.239276 3.5837271,83.120727 4,78 l -2.7460938,2.816406 c -11.8162892,12.02422 -11.8162892,12.02422 -18.3867182,16.753906 -1.952353,1.4179 -1.952353,1.4179 -3.71875,3.374998 -2.579797,2.46723 -5.294164,4.0501 -8.398438,5.80469 l -3.265625,1.85938 L -35,110 c -1.285704,-3.85711 -0.472941,-5.53248 0.695313,-9.40625 l 0.569168,-1.917679 c 0.403522,-1.356875 0.810843,-2.712626 1.221572,-4.067337 1.067918,-3.524481 2.107149,-7.057437 3.150666,-10.589203 l 0.625686,-2.10881 C -25.32975,70.401672 -22.131569,58.820517 -20,47 c -3.407531,2.756092 -4.818867,6.552587 -6.546875,10.457031 l -1.013,2.240647 c -1.069808,2.368772 -2.130484,4.741487 -3.190125,7.114822 -1.386782,3.091584 -2.777709,6.18127 -4.171875,9.269531 l -1.027466,2.278595 C -39.114177,85.336259 -42.5079,92.182711 -46,99 c -6.826163,-3.276347 -11.497514,-9.397256 -16.351562,-15.085938 -1.049183,-1.218245 -2.125163,-2.414271 -3.234375,-3.578125 -3.429035,-3.694264 -3.429035,-3.694264 -3.359375,-6.679687 1.279581,-3.595517 3.300284,-5.360999 6.070312,-7.96875 3.322696,-3.185612 6.574721,-6.367306 9.5625,-9.875 2.949752,-3.45663 6.111091,-6.629538 9.347656,-9.816406 1.887151,-1.917166 3.651698,-3.891847 5.402344,-5.933594 2.569153,-2.990517 5.255673,-5.793667 8.0625,-8.5625 3.322639,-3.28355 6.441007,-6.657917 9.488281,-10.195313 C -14.434966,13.770155 -7.845837,6.2410067 0,0 Z" fill="#fefefe" transform="translate(332,157)" id="path3" sodipodi:nodetypes="ccccccccccccccccccccccccccccccccccccccccccccccccccccccccccccccccccccccccccccccccccccccccccccccccccccccc"></path><path d="M0 0 C1.88525391 0.04060547 1.88525391 0.04060547 3.80859375 0.08203125 C5.17177734 0.13423828 5.17177734 0.13423828 6.5625 0.1875 C5.06573111 3.60979969 3.08831023 6.01220213 0.5625 8.75 C-0.23929688 9.62527344 -1.04109375 10.50054687 -1.8671875 11.40234375 C-2.71539062 12.32144531 -3.56359375 13.24054688 -4.4375 14.1875 C-6.14737887 16.06109068 -7.85572001 17.93608591 -9.5625 19.8125 C-10.32820312 20.65039062 -11.09390625 21.48828125 -11.8828125 22.3515625 C-13.87498248 24.56305394 -15.83733477 26.79228075 -17.7890625 29.0390625 C-21.32939084 33.09511172 -24.98882901 37.02606071 -28.6875 40.9375 C-34.22348006 46.80677279 -34.22348006 46.80677279 -39.6796875 52.75 C-40.17049805 53.29172852 -40.66130859 53.83345703 -41.16699219 54.39160156 C-42.47121922 55.8363821 -43.77093819 57.28522857 -45.0703125 58.734375 C-47.4375 61.1875 -47.4375 61.1875 -52.4375 65.1875 C-52.4375 60.2375 -52.4375 55.2875 -52.4375 50.1875 C-53.4275 50.1875 -54.4175 50.1875 -55.4375 50.1875 C-55.69789063 50.89777344 -55.95828125 51.60804688 -56.2265625 52.33984375 C-63.97333705 70.55725874 -80.9153742 84.07945808 -98.765625 91.62890625 C-100.4375 92.1875 -100.4375 92.1875 -102.4375 92.1875 C-102.71722656 91.09953125 -102.99695313 90.0115625 -103.28515625 88.890625 C-106.71202206 76.10808 -110.93481298 63.91430498 -122.4375 56.1875 C-123.9225 55.6925 -123.9225 55.6925 -125.4375 55.1875 C-125.18355469 55.99832031 -124.92960937 56.80914062 -124.66796875 57.64453125 C-123.94520998 59.96981134 -123.23233285 62.29817716 -122.52734375 64.62890625 C-121.88392542 66.72981698 -121.21843143 68.82454039 -120.50390625 70.90234375 C-116.12106564 84.51221721 -117.99988838 97.90395629 -122.4375 111.1875 C-122.94603516 112.80205078 -122.94603516 112.80205078 -123.46484375 114.44921875 C-125.75676197 121.08028463 -128.87652617 127.02014452 -132.5 133 C-133.13542725 134.06915649 -133.13542725 134.06915649 -133.78369141 135.15991211 C-135.03515625 137.14453125 -135.03515625 137.14453125 -137.4375 140.1875 C-141.4375 140.1875 -141.4375 140.1875 -143.40234375 138.6484375 C-144.05332031 137.96007812 -144.70429688 137.27171875 -145.375 136.5625 C-146.06851563 135.83675781 -146.76203125 135.11101562 -147.4765625 134.36328125 C-149.12829573 132.53058123 -150.70597803 130.67300918 -152.25 128.75 C-154.24697276 125.96422016 -154.24697276 125.96422016 -157.4375 125.1875 C-157.0765625 126.28707031 -156.715625 127.38664062 -156.34375 128.51953125 C-152.72400833 139.87177229 -149.98783606 148.64467008 -155.3125 159.9375 C-161.85952365 172.32886519 -170.20189039 183.63385321 -179.03759766 194.47021484 C-179.97944755 195.6255989 -180.91655241 196.7848656 -181.84912109 197.94775391 C-193.84981451 212.89365726 -193.84981451 212.89365726 -202.4375 217.1875 C-205.375 217.5 -205.375 217.5 -208.4375 217.1875 C-210.97871125 214.51136378 -211.86638797 212.59170571 -211.8671875 208.921875 C-211.62731435 201.54240673 -209.51215184 194.51141852 -207.5625 187.4375 C-207.26404678 186.33249649 -207.26404678 186.33249649 -206.95956421 185.20516968 C-201.69884997 165.73782999 -195.71239972 146.31234129 -187.88256836 127.71264648 C-186.43657837 124.18525174 -185.12226497 120.62971994 -183.8203125 117.046875 C-180.14759826 107.12249599 -175.85326692 97.48148123 -171.5625 87.8125 C-170.78996463 86.06267652 -170.0178279 84.31267699 -169.24609375 82.5625 C-167.72713609 79.11980662 -166.20380482 75.67910275 -164.67675781 72.23999023 C-163.17200787 68.85028823 -161.67743688 65.45635927 -160.19042969 62.05883789 C-159.65094193 60.8313533 -159.65094193 60.8313533 -159.10055542 59.57907104 C-158.42460676 58.04096289 -157.75134189 56.50167126 -157.08132935 54.96096802 C-151.10458411 41.40073624 -143.03461759 36.98870456 -129.51782227 31.70410156 C-123.3365593 29.35843351 -117.0034591 27.59464517 -110.625 25.875 C-109.14621394 25.47006671 -107.66745546 25.06503269 -106.1887207 24.65991211 C-89.94794805 20.23909621 -73.64578118 16.04093998 -57.35058975 11.82596207 C-55.14175629 11.25433637 -52.93321052 10.68160969 -50.72470093 10.10873413 C-47.18024634 9.18992702 -43.63456574 8.27599156 -40.08796692 7.36549759 C-38.151296 6.8674769 -36.21558045 6.36574554 -34.27990723 5.86386108 C-10.20814042 -0.29166115 -10.20814042 -0.29166115 0 0 Z " fill="#FEFEFE" transform="translate(276.4375,135.8125)" id="path4"></path><path d="M0 0 C3.81731102 1.7268788 6.67156236 4.45687473 8.625 8.1875 C8.55906491 11.61063032 7.81392826 12.96563597 5.5859375 15.58203125 C4.73257812 16.37996094 3.87921875 17.17789063 3 18 C-0.16191858 21.03148381 -3.21725366 24.04366374 -6.0625 27.375 C-8.77730231 30.54756757 -11.64733578 33.48175835 -14.625 36.40625 C-16.45742487 38.27139674 -18.16853135 40.20677746 -19.875 42.1875 C-22.1205794 44.79397609 -24.42051512 47.27684521 -26.875 49.6875 C-29.30889732 52.07803167 -31.58855559 54.53796262 -33.8125 57.125 C-36.85179651 60.65384763 -40.08516847 63.91755027 -43.40234375 67.18359375 C-45.94837829 69.76996151 -48.29521557 72.5028528 -50.66015625 75.25390625 C-52.87669397 77.75319138 -55.24662281 80.07031884 -57.62890625 82.41015625 C-59.43977643 84.25343574 -61.12821354 86.16572799 -62.8125 88.125 C-65.85179651 91.65384763 -69.08516847 94.91755027 -72.40234375 98.18359375 C-74.94837829 100.76996151 -77.29521557 103.5028528 -79.66015625 106.25390625 C-81.87669397 108.75319138 -84.24662281 111.07031884 -86.62890625 113.41015625 C-88.43977643 115.25343574 -90.12821354 117.16572799 -91.8125 119.125 C-94.23117779 121.93326347 -96.73399683 124.58720593 -99.375 127.1875 C-101.99540609 129.76759215 -104.47823412 132.39853607 -106.875 135.1875 C-109.89262353 138.69891648 -113.10859081 141.94057402 -116.40625 145.1875 C-118.31486455 147.12641002 -120.10210552 149.12449551 -121.875 151.1875 C-124.89262353 154.69891648 -128.10859081 157.94057402 -131.40625 161.1875 C-133.31486455 163.12641002 -135.10210552 165.12449551 -136.875 167.1875 C-139.89262353 170.69891648 -143.10859081 173.94057402 -146.40625 177.1875 C-148.31486455 179.12641002 -150.10210552 181.12449551 -151.875 183.1875 C-154.27176588 185.97646393 -156.75459391 188.60740785 -159.375 191.1875 C-161.93369259 193.70705389 -164.35670611 196.26868782 -166.6875 199 C-169.59750413 202.38945561 -172.69659176 205.55202146 -175.875 208.6875 C-179.63923728 212.40096355 -183.20838308 216.2087398 -186.63671875 220.234375 C-188.60531801 222.44628428 -190.69192498 224.49611344 -192.8125 226.5625 C-195.73923624 229.4453352 -198.33932638 232.34804496 -200.8125 235.625 C-205.66537136 241.89123308 -211.37594419 247.31693496 -217.02905273 252.85522461 C-220.73285375 256.49294954 -224.15840495 260.10518563 -227.375 264.1875 C-232.58084353 268.78157034 -238.91634901 271.46234407 -245.25 274.125 C-245.99983154 274.44388184 -246.74966309 274.76276367 -247.5222168 275.09130859 C-253.0044699 277.31101003 -253.0044699 277.31101003 -256.375 276.1875 C-255.97821045 275.7656543 -255.5814209 275.34380859 -255.17260742 274.90917969 C-246.84796964 266.05486866 -238.55081961 257.17962609 -230.375 248.1875 C-229.53839844 247.26839844 -228.70179688 246.34929687 -227.83984375 245.40234375 C-224.22653101 241.41301147 -220.72396515 237.40246018 -217.375 233.1875 C-209.179996 223.45593274 -200.43645196 214.15057698 -191.37890625 205.22265625 C-189.49821793 203.31263946 -187.74087495 201.34969409 -186 199.3125 C-182.3065206 195.00057754 -178.27727403 191.05677934 -174.21875 187.09375 C-171.40098916 184.27998527 -168.81554014 181.28473451 -166.20947266 178.27587891 C-163.1647793 174.8097747 -159.98662164 171.47222694 -156.8125 168.125 C-155.39948973 166.62914222 -153.98673415 165.13304383 -152.57421875 163.63671875 C-151.87087402 162.89212402 -151.1675293 162.1475293 -150.44287109 161.38037109 C-141.51059977 151.9081561 -132.66403597 142.35579222 -123.84277344 132.78027344 C-121.35533784 130.08100034 -118.86498994 127.38441656 -116.375 124.6875 C-115.37629532 123.605475 -114.3775974 122.52344375 -113.37890625 121.44140625 C-111.36645294 119.26119388 -109.35337243 117.08156299 -107.33984375 114.90234375 C-101.12268877 108.17251631 -94.92098807 101.42885103 -88.73388672 94.67138672 C-86.90720583 92.67667482 -85.07950295 90.68290093 -83.25170898 88.68920898 C-82.33576778 87.69010376 -81.41991455 86.69091789 -80.50415039 85.69165039 C-78.18906372 83.16553926 -75.87288212 80.64044702 -73.5546875 78.1171875 C-68.56884186 72.68815558 -63.61078108 67.23594178 -58.6875 61.75 C-55.63140539 58.36351679 -52.54514388 55.00505186 -49.45874023 51.64624023 C-46.59897796 48.53116875 -43.75984641 45.39898325 -40.9375 42.25 C-37.41183334 38.31922982 -33.83887316 34.43537673 -30.25 30.5625 C-26.510524 26.52563168 -22.82837285 22.45368071 -19.2265625 18.29296875 C-16.74871595 15.47533312 -14.22123191 12.70487095 -11.6875 9.9375 C-10.9912854 9.17554321 -10.9912854 9.17554321 -10.28100586 8.39819336 C-8.98634711 6.98785262 -7.68092273 5.58741717 -6.375 4.1875 C-5.29412109 3.02541016 -5.29412109 3.02541016 -4.19140625 1.83984375 C-2.375 0.1875 -2.375 0.1875 0 0 Z " fill="#FCFCFC" transform="translate(406.375,24.8125)" id="path5"></path><path d="M0 0 C1.52219408 1.18025193 3.02028747 2.39190622 4.5 3.625 C5.4590625 4.35203125 6.418125 5.0790625 7.40625 5.828125 C18.81108221 14.75615021 26.01883762 24.7213935 30.5 38.625 C30.83 39.615 31.16 40.605 31.5 41.625 C32.12840126 51.1356114 32.09517186 59.10507053 26.1875 66.9375 C23.39530988 69.72969012 21.17455294 71.2177244 17.5 72.625 C16.18 72.625 14.86 72.625 13.5 72.625 C13.53480469 71.4184375 13.56960937 70.211875 13.60546875 68.96875 C13.63362984 67.35418072 13.66092749 65.73959621 13.6875 64.125 C13.71263672 63.33351563 13.73777344 62.54203125 13.76367188 61.7265625 C13.85353042 54.41806724 12.32331194 47.72368111 7.29296875 42.07421875 C0.38997795 36.49467716 -7.74501345 33.45981157 -16.5 33.625 C-14.93028409 38.33414772 -10.39641183 39.76503805 -6.22265625 42.04492188 C-1.0446914 44.98995296 2.772871 48.170742 5.5 53.625 C5.62207871 55.41359511 5.67548448 57.20728381 5.6875 59 C5.70167969 59.95648438 5.71585938 60.91296875 5.73046875 61.8984375 C5.49745572 64.65510017 4.90920164 66.27447395 3.5 68.625 C-1.61356163 68.14314515 -4.93762498 65.57963348 -9 62.6875 C-9.69689941 62.19967041 -10.39379883 61.71184082 -11.11181641 61.20922852 C-27.42188405 49.70311595 -27.42188405 49.70311595 -32.5 44.625 C-32.85553013 39.9142258 -32.37911277 35.70429889 -31.5625 31.0625 C-29.88338609 21.01163376 -29.82054535 10.79254226 -29.5 0.625 C-8.13431411 -5.16441166 -8.13431411 -5.16441166 0 0 Z " fill="#FDFDFD" transform="translate(209.5,396.375)" id="path6"></path><path d="M0 0 C1.69576172 0.63228516 1.69576172 0.63228516 3.42578125 1.27734375 C17.90451723 6.31408903 31.75015014 7.02411861 47 7 C50.82253959 14.0449243 49.70724786 23.14996597 47.875 30.75 C44.93523891 40.10754939 40.18092297 47.60049237 31.5 52.375 C28.16822202 53.2079445 26.27255946 53.09085315 23 52 C17.08864353 46.82756309 14.83983287 39.1354588 12 32 C11.3268622 30.31899468 10.65368309 28.63800591 9.98046875 26.95703125 C8.94552603 24.37098875 7.91311141 21.78415485 6.89135742 19.19287109 C4.98050635 14.36213868 2.95494481 9.62055978 0.73876953 4.92114258 C0 3 0 3 0 0 Z " fill="#FDFDFD" transform="translate(117,391)" id="path7"></path><path d="M0 0 C4.19961408 1.52884827 5.78114469 4.21944384 8.1875 7.875 C8.97167034 9.05100804 9.75819241 10.2254508 10.546875 11.3984375 C10.94841797 11.99624023 11.34996094 12.59404297 11.76367188 13.20996094 C14.40571705 17.03529174 17.29642834 20.67689565 20.15234375 24.34375 C21.89740264 26.85250274 23.00466232 29.12342199 24 32 C18.34898302 34.30274131 13.0921865 35.70452586 7.0625 36.5625 C6.23621094 36.68544434 5.40992188 36.80838867 4.55859375 36.93505859 C2.04071621 37.30321156 -0.47887216 37.65486647 -3 38 C-3.73492676 38.10199707 -4.46985352 38.20399414 -5.22705078 38.30908203 C-16.45696394 39.83726041 -27.68067428 40.52784371 -39 41 C-33.43312161 34.27824246 -27.2914864 28.2329006 -21.07617188 22.11523438 C-16.6963651 17.77737307 -12.48689008 13.37696281 -8.47192383 8.69897461 C-6.75018548 6.71165048 -4.94055635 4.83972867 -3.0625 3 C-2.47597656 2.4225 -1.88945312 1.845 -1.28515625 1.25 C-0.86105469 0.8375 -0.43695313 0.425 0 0 Z " fill="#FDFDFD" transform="translate(252,243)" id="path8"></path><path d="M0 0 C0.80775879 -0.00999023 1.61551758 -0.01998047 2.44775391 -0.03027344 C4.69921875 0.00390625 4.69921875 0.00390625 8.3125 0.4375 C12.81422288 7.19008432 9.73763265 16.91738039 8.3125 24.4375 C4.32341296 25.9839246 0.76180519 24.90031609 -3.2421875 23.9609375 C-3.98018585 23.79381256 -4.7181842 23.62668762 -5.47854614 23.45449829 C-7.04466287 23.09733041 -8.60974253 22.73558895 -10.17382812 22.36962891 C-12.51675746 21.8231689 -14.8632796 21.29525203 -17.2109375 20.76953125 C-26.64895614 18.61597494 -35.65631103 15.93760847 -44.6875 12.4375 C-44.6875 11.1175 -44.6875 9.7975 -44.6875 8.4375 C-30.29102729 3.41609579 -15.28237063 0.11157158 0 0 Z " fill="#FCFCFC" transform="translate(271.6875,378.5625)" id="path9"></path><path d="M0 0 C0.8680908 1.91040052 1.71901783 3.82860737 2.5625 5.75 C3.03816406 6.81734375 3.51382813 7.8846875 4.00390625 8.984375 C5.02133302 12.06458466 5.36888821 13.12291195 4 16 C2.36328125 17.96484375 2.36328125 17.96484375 0.3125 19.9375 C-0.41195312 20.63746094 -1.13640625 21.33742188 -1.8828125 22.05859375 C-3.55912457 23.59572862 -5.30062582 25.06173536 -7.0625 26.5 C-13.51407125 31.99069894 -18.59499458 38.90496662 -23.88671875 45.484375 C-25.83801684 47.80717716 -27.71652656 50.00137703 -30 52 C-34.98885926 52 -38.0657073 49.90388271 -42 47 C-40.56986935 42.47814183 -38.03926091 39.53967698 -34.8125 36.1875 C-33.80659531 35.11784193 -32.80138548 34.04752998 -31.796875 32.9765625 C-31.31154297 32.46254883 -30.82621094 31.94853516 -30.32617188 31.41894531 C-28.69284224 29.67135476 -27.12167126 27.87638736 -25.5625 26.0625 C-21.96682877 21.91364858 -18.23281427 17.8967455 -14.49487305 13.87646484 C-10.74333036 9.83397168 -7.0980574 5.7122742 -3.5234375 1.51171875 C-2 0 -2 0 0 0 Z " fill="#FBFBFB" transform="translate(96,358)" id="path10"></path><path d="M0 0 C3.9069283 1.30230943 4.23708974 2.73116269 6.125 6.3125 C6.90230469 7.76076172 6.90230469 7.76076172 7.6953125 9.23828125 C10.73537238 15.67337805 10.88025291 22.01692069 8.875 28.8125 C6.58074741 32.7127294 5.14779233 34.148307 1 36 C-5.81604302 37.10474092 -10.85980967 36.23531396 -16.63671875 32.484375 C-18 31 -18 31 -18 27 C-16.171875 25.47265625 -16.171875 25.47265625 -13.75 24.0625 C-6.42581085 19.44333219 -3.69209943 14.0762983 -1 6 C-0.23394542 2.59880678 -0.23394542 2.59880678 0 0 Z " fill="#FCFCFC" transform="translate(252,451)" id="path11"></path><path d="M0 0 C4.591665 1.67396305 7.37196582 3.79383026 11 7 C10.05221386 14.85053046 -0.86892814 20.95240605 -6.77856445 25.62866211 C-9.50747014 27.76774165 -12.24989611 29.88824139 -15 32 C-15.66 31.34 -16.32 30.68 -17 30 C-11.44387726 19.93341514 -5.85903814 9.89440216 0 0 Z " fill="#F9F9F9" transform="translate(47,414)" id="path12"></path><path d="M0 0 C0.99 0 1.98 0 3 0 C10.59043696 27.30346499 10.59043696 27.30346499 9 37 C8.01 37.66 7.02 38.32 6 39 C-1.27789242 29.46345131 -3.02245232 16.74953683 -2 5 C-0.98828125 2.1640625 -0.98828125 2.1640625 0 0 Z " fill="#070707" transform="translate(211,317)" id="path13"></path><path d="M0 0 C-0.66386719 0.72445312 -1.32773438 1.44890625 -2.01171875 2.1953125 C-10.28714623 10.29935262 -10.28714623 10.29935262 -16 20 C-16.66 20 -17.32 20 -18 20 C-17.41143154 12.93717854 -15.44450669 6.8160605 -9.9375 2.0625 C-6.18672252 -0.57102462 -4.3212473 -1.34107675 0 0 Z " fill="#242424" transform="translate(185,239)" id="path14"></path></svg></g></g></svg></g></svg>